<?xml version="1.0" encoding="iso-8859-1"?>
<!-- Generator: Adobe Illustrator 19.0.0, SVG Export Plug-In . SVG Version: 6.00 Build 0)  -->
<svg version="1.1" id="Layer_1" xmlns="http://www.w3.org/2000/svg" xmlns:xlink="http://www.w3.org/1999/xlink" x="0px" y="0px"
	 viewBox="0 0 512 512" style="enable-background:new 0 0 512 512;" xml:space="preserve">
<g>
	<g>
		<path d="M432.232,94.608c-9.876-36.826-43.402-62.546-81.529-62.546H300.29c5.793-2.649,9.826-8.481,9.826-15.267
			C310.116,7.52,302.597,0,293.321,0h-74.643c-9.275,0-16.795,7.52-16.795,16.795c0,6.786,4.033,12.618,9.826,15.267h-50.413
			c-38.127,0-71.654,25.72-81.529,62.547c-2.857,10.66,5.188,21.145,16.224,21.145h320.02
			C427.048,115.753,435.091,105.266,432.232,94.608z" fill="#B1B1B1"/>
	</g>
</g>
<g>
	<g>
		<path d="M416.011,149.343H95.991c-9.83,0-17.567,8.419-16.734,18.218l27.991,329.068c0.739,8.693,8.01,15.372,16.734,15.372
			H388.02c8.724,0,15.995-6.679,16.734-15.372l27.991-329.068C433.578,157.766,425.845,149.343,416.011,149.343z M176.914,457.118
			c-9.173,0.85-17.405-5.908-18.254-15.196l-20.154-220.57c-0.843-9.237,5.96-17.409,15.197-18.254
			c9.234-0.843,17.409,5.959,18.254,15.196l20.154,220.57C192.954,448.102,186.151,456.274,176.914,457.118z M272.795,440.393
			c0,9.275-7.52,16.795-16.795,16.795s-16.795-7.52-16.795-16.795v-220.57c0-9.275,7.52-16.795,16.795-16.795
			s16.795,7.52,16.795,16.795V440.393z M373.494,221.352l-20.154,220.57c-0.849,9.287-9.079,16.046-18.254,15.196
			c-9.237-0.844-16.041-9.016-15.197-18.254l20.154-220.57c0.844-9.237,9.023-16.051,18.254-15.196
			C367.534,203.942,374.337,212.114,373.494,221.352z" fill="#B1B1B1"/>
	</g>
</g>
<g>
</g>
<g>
</g>
<g>
</g>
<g>
</g>
<g>
</g>
<g>
</g>
<g>
</g>
<g>
</g>
<g>
</g>
<g>
</g>
<g>
</g>
<g>
</g>
<g>
</g>
<g>
</g>
<g>
</g>
</svg>
